<svg width="9" height="16" viewBox="0 0 9 16" fill="none" xmlns="http://www.w3.org/2000/svg">
<path d="M8.31153 0.390703C8.2196 0.298546 8.1104 0.22543 7.99018 0.175543C7.86995 0.125655 7.74106 0.0999756 7.6109 0.0999756C7.48074 0.0999756 7.35185 0.125655 7.23163 0.175543C7.1114 0.22543 7.0022 0.298546 6.91028 0.390703L0.331524 6.96945C0.258134 7.04269 0.199909 7.12969 0.160182 7.22546C0.120455 7.32123 0.100006 7.42389 0.100006 7.52758C0.100006 7.63126 0.120455 7.73393 0.160182 7.8297C0.199909 7.92547 0.258134 8.01246 0.331524 8.0857L6.91028 14.6645C7.29819 15.0524 7.92361 15.0524 8.31153 14.6645C8.69944 14.2765 8.69944 13.6511 8.31153 13.2632L2.57986 7.52362L8.31944 1.78404C8.69944 1.40404 8.69944 0.770703 8.31153 0.390703Z" fill="#1E232C" stroke="#1E232C" stroke-width="0.2"/>
</svg>
