<svg width="60" height="60" viewBox="0 0 60 60" fill="none" xmlns="http://www.w3.org/2000/svg">
<path d="M30 4.5C44.0889 4.5 55.5 15.9111 55.5 30C55.5 44.0889 44.0889 55.5 30 55.5C15.9111 55.5 4.5 44.0889 4.5 30C4.5 15.9111 15.9111 4.5 30 4.5Z" fill="url(#paint0_linear_2_582)" stroke="#F4D374"/>
<path d="M26.9514 17.2572C27.7984 16.9749 28.6543 17.6021 28.6545 18.473C28.6545 19.0305 28.3001 19.5202 27.7532 19.7133C26.5415 20.0827 25.4288 20.7212 24.4797 21.5121C23.007 22.7357 21.8459 24.3493 21.2287 26.2201C20.8857 27.2265 20.7034 28.3215 20.7034 29.4369V40.9847C20.7034 41.7053 20.125 42.2836 19.4045 42.2836C18.6842 42.2833 18.1067 41.7051 18.1067 40.9847V29.4369C18.1067 26.2693 19.261 23.3588 21.1575 21.1351L21.5471 20.6996C23.0078 19.1345 24.8636 17.9254 26.9455 17.2592L26.9514 17.2572Z" fill="white" stroke="#F4D374"/>
<path d="M33.2297 18.4514C33.2299 17.5894 34.0575 16.9756 34.8742 17.2375L34.8762 17.2385C39.8651 18.814 43.5236 23.364 43.7854 28.8225L43.8 29.3538C43.8413 36.3804 38.1256 42.1993 31.1008 42.262H30.9533C27.8302 42.262 25.3002 39.7148 25.3 36.5872V29.4368L25.3078 29.1321C25.4735 26.0087 28.172 23.5511 31.3723 23.7825H31.3732C34.1781 23.9815 36.4499 26.2729 36.6291 29.0784C36.7484 31.0107 35.892 32.7619 34.5197 33.8557L34.5168 33.8586C33.7114 34.5121 32.4504 33.9115 32.4504 32.8381C32.4505 32.4477 32.6196 32.0872 32.9211 31.8333C33.5949 31.2777 34.0232 30.4514 34.0529 29.5422V29.3557L34.0295 29.0588C33.8395 27.5932 32.6119 26.4315 31.1076 26.3586H31.1047C29.3261 26.2815 27.8538 27.6998 27.8537 29.4583V36.4133C27.8537 38.1894 29.2636 39.6646 31.0334 39.7083H31.2961C36.5128 39.5259 40.8162 35.3825 41.1809 30.1653V30.1624C41.4995 25.3116 38.4464 21.1209 34.1203 19.7092H34.1193C33.5822 19.5355 33.2297 19.0512 33.2297 18.5168V18.4514Z" fill="white" stroke="#F4D374"/>
<circle cx="30" cy="30" r="29" stroke="#F4D374" stroke-width="2"/>
<defs>
<linearGradient id="paint0_linear_2_582" x1="4" y1="30" x2="56" y2="30" gradientUnits="userSpaceOnUse">
<stop stop-color="#F4D374"/>
<stop offset="1" stop-color="#F4D374"/>
</linearGradient>
</defs>
</svg>
